<svg xmlns="http://www.w3.org/2000/svg" xmlns:xlink="http://www.w3.org/1999/xlink" width="500" zoomAndPan="magnify" viewBox="0 0 375 374.999991" height="500" preserveAspectRatio="xMidYMid meet" version="1.0"><defs><g/><clipPath id="id1"><path d="M 231 92.429688 L 255 92.429688 L 255 218 L 231 218 Z M 231 92.429688 " clip-rule="nonzero"/></clipPath><clipPath id="id2"><path d="M 246 92.429688 L 273.683594 92.429688 L 273.683594 220 L 246 220 Z M 246 92.429688 " clip-rule="nonzero"/></clipPath><clipPath id="id3"><path d="M 228 92.429688 L 273.683594 92.429688 L 273.683594 225.882812 L 228 225.882812 Z M 228 92.429688 " clip-rule="nonzero"/></clipPath><clipPath id="id4"><path d="M 214 184 L 273.683594 184 L 273.683594 225.882812 L 214 225.882812 Z M 214 184 " clip-rule="nonzero"/></clipPath><clipPath id="id5"><path d="M 101.183594 205 L 137 205 L 137 225.882812 L 101.183594 225.882812 Z M 101.183594 205 " clip-rule="nonzero"/></clipPath><clipPath id="id6"><path d="M 109 93 L 134 93 L 134 225.882812 L 109 225.882812 Z M 109 93 " clip-rule="nonzero"/></clipPath><clipPath id="id7"><path d="M 101.183594 92.429688 L 151 92.429688 L 151 225.882812 L 101.183594 225.882812 Z M 101.183594 92.429688 " clip-rule="nonzero"/></clipPath><clipPath id="id8"><path d="M 168 92.429688 L 255 92.429688 L 255 225.882812 L 168 225.882812 Z M 168 92.429688 " clip-rule="nonzero"/></clipPath><clipPath id="id9"><path d="M 116 92.429688 L 188 92.429688 L 188 192 L 116 192 Z M 116 92.429688 " clip-rule="nonzero"/></clipPath></defs><g fill="#000000" fill-opacity="1"><g transform="translate(135.393609, 273.380589)"><g><path d="M 12.515625 -1.015625 L 11.71875 -1.015625 L 6.09375 -14.65625 C 5.851562 -15.195312 5.613281 -15.820312 5.375 -16.53125 C 5.375 -16.507812 5.359375 -16.398438 5.328125 -16.203125 C 5.304688 -16.003906 5.273438 -15.738281 5.234375 -15.40625 C 5.191406 -15.082031 5.148438 -14.8125 5.109375 -14.59375 L 2.890625 0 L 1.546875 0 L 4.703125 -19.421875 L 5.5 -19.421875 L 11.5 -5.171875 C 11.976562 -3.984375 12.21875 -3.359375 12.21875 -3.296875 C 12.351562 -3.710938 12.625 -4.328125 13.03125 -5.140625 L 19.71875 -19.421875 L 20.515625 -19.421875 L 23.453125 0 L 22.03125 0 L 19.921875 -14.65625 C 19.785156 -15.625 19.71875 -16.269531 19.71875 -16.59375 L 18.859375 -14.625 Z M 12.515625 -1.015625 "/></g></g></g><g fill="#000000" fill-opacity="1"><g transform="translate(160.396537, 273.380589)"><g><path d="M 17.296875 -1.984375 C 15.992188 -0.460938 14.003906 0.296875 11.328125 0.296875 C 8.648438 0.296875 6.65625 -0.460938 5.34375 -1.984375 C 4.039062 -3.515625 3.390625 -5.628906 3.390625 -8.328125 L 3.390625 -19.296875 L 4.75 -19.296875 L 4.75 -8.328125 C 4.75 -3.390625 6.941406 -0.921875 11.328125 -0.921875 C 15.710938 -0.921875 17.90625 -3.390625 17.90625 -8.328125 L 17.90625 -19.296875 L 19.265625 -19.296875 L 19.265625 -8.328125 C 19.265625 -5.628906 18.609375 -3.515625 17.296875 -1.984375 Z M 17.296875 -1.984375 "/></g></g></g><g fill="#000000" fill-opacity="1"><g transform="translate(183.050806, 273.380589)"><g><path d="M 12.109375 0.296875 C 9.347656 0.296875 7.035156 -0.660156 5.171875 -2.578125 C 3.304688 -4.503906 2.375 -6.859375 2.375 -9.640625 C 2.375 -12.429688 3.304688 -14.785156 5.171875 -16.703125 C 7.035156 -18.628906 9.34375 -19.59375 12.09375 -19.59375 C 14.851562 -19.59375 17.160156 -18.628906 19.015625 -16.703125 C 20.867188 -14.785156 21.796875 -12.4375 21.796875 -9.65625 C 21.796875 -8.019531 21.445312 -6.492188 20.75 -5.078125 C 20.0625 -3.671875 19.113281 -2.515625 17.90625 -1.609375 C 22.625 1.191406 26.25 2.878906 28.78125 3.453125 C 30.09375 3.765625 31.351562 3.921875 32.5625 3.921875 C 33.769531 3.921875 35.070312 3.78125 36.46875 3.5 C 37.863281 3.226562 38.859375 2.941406 39.453125 2.640625 L 39.78125 3.421875 C 39.03125 3.773438 37.9375 4.125 36.5 4.46875 C 35.0625 4.820312 33.710938 5 32.453125 5 C 31.191406 5 29.847656 4.832031 28.421875 4.5 C 26.992188 4.175781 25.503906 3.65625 23.953125 2.9375 C 22.410156 2.226562 21.21875 1.648438 20.375 1.203125 C 19.539062 0.753906 18.328125 0.0664062 16.734375 -0.859375 C 15.304688 -0.0859375 13.765625 0.296875 12.109375 0.296875 Z M 12.078125 -18.375 C 9.691406 -18.375 7.71875 -17.53125 6.15625 -15.84375 C 4.59375 -14.164062 3.8125 -12.101562 3.8125 -9.65625 C 3.8125 -7.207031 4.59375 -5.144531 6.15625 -3.46875 C 7.71875 -1.789062 9.703125 -0.953125 12.109375 -0.953125 C 13.347656 -0.953125 14.472656 -1.191406 15.484375 -1.671875 C 13.242188 -3.171875 11.503906 -3.921875 10.265625 -3.921875 C 9.546875 -3.921875 8.890625 -3.785156 8.296875 -3.515625 L 7.84375 -4.34375 C 8.519531 -4.78125 9.273438 -5 10.109375 -5 C 10.941406 -5 11.753906 -4.847656 12.546875 -4.546875 C 13.335938 -4.253906 14.003906 -3.945312 14.546875 -3.625 C 15.097656 -3.3125 15.8125 -2.867188 16.6875 -2.296875 C 17.832031 -3.066406 18.734375 -4.097656 19.390625 -5.390625 C 20.054688 -6.691406 20.390625 -8.113281 20.390625 -9.65625 C 20.390625 -12.101562 19.601562 -14.164062 18.03125 -15.84375 C 16.457031 -17.53125 14.472656 -18.375 12.078125 -18.375 Z M 12.078125 -18.375 "/></g></g></g><g fill="#000000" fill-opacity="1"><g transform="translate(207.221299, 273.380589)"><g><path d="M 3.5625 0 L 3.5625 -19.296875 L 4.9375 -19.296875 L 4.9375 0 Z M 3.5625 0 "/></g></g></g><g fill="#000000" fill-opacity="1"><g transform="translate(215.724074, 273.380589)"><g><path d="M 3.5625 0 L 3.5625 -19.296875 L 4.9375 -19.296875 L 4.9375 0 Z M 3.5625 0 "/></g></g></g><g fill="#000000" fill-opacity="1"><g transform="translate(224.22685, 273.380589)"><g><path d="M 7.015625 -18.078125 L 0.46875 -18.078125 L 0.46875 -19.296875 L 14.890625 -19.296875 L 14.890625 -18.078125 L 8.359375 -18.078125 L 8.359375 0 L 7.015625 0 Z M 7.015625 -18.078125 "/></g></g></g><path fill="#eb9e44" d="M 122.644531 117.558594 C 127.914062 127.359375 137.738281 146.167969 147.222656 164.804688 C 156.703125 183.441406 165.839844 201.902344 171.011719 212.296875 C 176.183594 222.695312 177.390625 225.023438 179.847656 221.746094 C 182.300781 218.464844 186.007812 209.582031 188.207031 204.359375 C 190.40625 199.140625 191.09375 197.589844 189.671875 193.445312 C 188.25 189.304688 184.714844 182.578125 177.863281 168.6875 C 171.011719 154.796875 160.839844 133.746094 153.644531 119.769531 C 146.445312 105.792969 142.222656 98.890625 139.261719 96 C 136.304688 93.109375 134.609375 94.230469 131.761719 95.226562 C 128.917969 96.214844 124.925781 97.078125 122.097656 98.882812 C 119.273438 100.683594 117.613281 103.425781 117.140625 105.191406 C 116.667969 106.960938 117.375 107.757812 122.644531 117.558594 " fill-opacity="1" fill-rule="evenodd"/><g clip-path="url(#id1)"><path fill="#9dc8c7" d="M 246.804688 207.945312 C 250.796875 197.550781 254.453125 176.585938 254.496094 155.738281 C 254.539062 134.890625 250.964844 114.15625 248.058594 103.589844 C 245.148438 93.019531 242.914062 92.613281 239.726562 92.496094 C 236.535156 92.382812 232.398438 92.554688 231.367188 93.113281 C 230.332031 93.675781 232.398438 94.625 233.433594 99.886719 C 234.46875 105.152344 234.46875 114.726562 234.339844 132.628906 C 234.210938 150.53125 233.953125 176.757812 233.898438 192.371094 C 233.847656 207.984375 234.003906 212.984375 236.242188 215.570312 C 238.484375 218.160156 242.8125 218.335938 246.804688 207.945312 " fill-opacity="1" fill-rule="evenodd"/></g><g clip-path="url(#id2)"><path fill="#6415ff" d="M 273.296875 93.503906 C 273.601562 93.589844 268.515625 93.675781 265.066406 94.753906 C 261.617188 95.832031 259.808594 97.902344 258.945312 109.851562 C 258.085938 121.800781 258.171875 143.628906 258.085938 162.695312 C 258 181.761719 257.742188 198.066406 257.136719 207.964844 C 256.535156 217.859375 255.585938 221.347656 254.9375 218.328125 C 254.292969 215.308594 253.949219 205.78125 253.558594 185.75 C 253.171875 165.714844 252.742188 135.175781 252.136719 117.960938 C 251.535156 100.75 250.757812 96.867188 249.078125 94.839844 C 247.398438 92.8125 244.8125 92.640625 246.75 92.683594 C 248.691406 92.726562 255.15625 92.984375 261.230469 93.160156 C 267.308594 93.332031 272.996094 93.417969 273.296875 93.503906 " fill-opacity="1" fill-rule="evenodd"/></g><g clip-path="url(#id3)"><path stroke-linecap="butt" transform="matrix(0.0105334, 0, 0, -0.0105431, 101.910694, 225.593188)" fill="none" stroke-linejoin="miter" d="M 16271.168855 12528.896201 C 16300.094809 12520.745122 15817.253887 12512.594043 15489.797255 12410.335052 C 15162.340624 12307.705557 14990.639129 12111.338653 14908.682259 10977.968165 C 14827.096236 9844.96818 14835.254838 7774.594108 14827.096236 5965.795571 C 14818.937633 4157.367538 14794.461826 2610.885545 14736.980764 1672.029443 C 14679.870548 733.543844 14589.755076 402.684136 14528.194713 689.083413 C 14467.005195 975.482689 14434.370785 1879.140951 14397.286229 3779.453874 C 14360.572518 5679.396295 14319.779507 8576.363881 14262.298444 10208.802708 C 14205.188228 11841.612038 14131.389961 12209.522105 13971.926369 12401.813469 C 13812.462777 12594.475337 13566.963015 12610.777495 13750.902414 12606.701956 C 13935.212659 12602.626416 14548.962064 12578.173179 15125.626913 12561.500518 C 15702.662608 12545.198359 16242.613747 12537.04728 16271.168855 12528.896201 Z M 16271.168855 12528.896201 " stroke="#231f20" stroke-width="52.192001" stroke-opacity="1" stroke-miterlimit="22.926001"/></g><g clip-path="url(#id4)"><path stroke-linecap="butt" transform="matrix(0.0105592, 0, 0, -0.010569, 101.910694, 225.593188)" fill="none" stroke-linejoin="miter" d="M 14388.663435 1774.008941 C 14523.320641 1467.983233 14640.59079 1019.662961 14817.050919 712.528464 C 14993.880986 405.02437 15230.640909 238.336454 15557.295614 155.177294 C 15883.580382 71.648538 16300.129871 71.648538 16059.300637 71.648538 C 15818.471404 71.648538 14920.633386 71.648538 14148.944014 71.648538 C 13377.624579 71.648538 12732.823728 71.648538 12479.786561 118.217667 C 12226.749394 164.786797 12365.475911 258.294652 12471.647939 553.602069 C 12577.819966 849.279082 12651.437505 1347.125254 12892.266738 1690.110589 C 13133.095972 2033.095924 13541.1369 2220.850828 13821.179496 2232.308312 C 14101.592029 2244.135392 14254.376167 2080.03465 14388.663435 1774.008941 Z M 14388.663435 1774.008941 " stroke="#231f20" stroke-width="52.061001" stroke-opacity="1" stroke-miterlimit="22.926001"/></g><g clip-path="url(#id5)"><path fill="#f592ac" d="M 102.441406 224.804688 C 103.691406 224.019531 107.140625 222.453125 109.769531 218.214844 C 112.398438 213.980469 114.207031 207.078125 115.890625 205.957031 C 117.570312 204.835938 119.121094 209.492188 123.472656 213.730469 C 127.828125 217.964844 134.980469 221.777344 136.015625 223.683594 C 137.050781 225.589844 131.964844 225.589844 125.457031 225.589844 C 118.949219 225.589844 111.019531 225.589844 106.582031 225.589844 C 102.140625 225.589844 101.195312 225.589844 102.441406 224.804688 " fill-opacity="1" fill-rule="evenodd"/></g><g clip-path="url(#id6)"><path fill="#6415ff" d="M 117.460938 220.535156 C 115.761719 215.480469 115.5 205.371094 115.71875 184.828125 C 115.933594 164.285156 116.621094 133.3125 116.363281 116.707031 C 116.105469 100.097656 114.898438 97.855469 113.046875 96.300781 C 111.191406 94.75 108.691406 93.886719 109.253906 93.757812 C 109.8125 93.628906 113.433594 94.234375 118.949219 94.449219 C 124.464844 94.664062 131.878906 94.492188 132.914062 95.355469 C 133.945312 96.214844 128.601562 98.113281 125.285156 100.226562 C 121.964844 102.34375 120.671875 104.671875 119.898438 110.882812 C 119.121094 117.09375 118.863281 127.1875 118.777344 141.597656 C 118.691406 156.003906 118.777344 174.726562 118.851562 187.792969 C 118.921875 200.859375 118.984375 208.273438 119.84375 213.105469 C 120.707031 217.9375 122.371094 220.1875 123.441406 221.835938 C 124.507812 223.488281 124.984375 224.539062 123.648438 225.066406 C 122.3125 225.589844 119.164062 225.589844 117.460938 220.535156 " fill-opacity="1" fill-rule="evenodd"/></g><g clip-path="url(#id7)"><path stroke-linecap="butt" transform="matrix(0.00808846, 0, 0, -0.00809593, 101.910694, 225.593188)" fill="none" stroke-linejoin="miter" d="M 1922.521538 624.762482 C 1712.442217 1249.111838 1680.085172 2497.810549 1707.129866 5035.255111 C 1733.691619 7572.217177 1818.68923 11397.925093 1786.815126 13449.496547 C 1754.941022 15500.585505 1605.712262 15778.020497 1376.798243 15969.571265 C 1147.401283 16161.604529 838.319063 16268.236065 907.862562 16284.158422 C 976.923121 16300.080778 1424.609399 16225.293954 2106.522047 16198.756694 C 2788.434696 16172.219433 3705.056655 16193.449242 3833.036012 16086.817705 C 3960.532428 15980.186169 3299.869182 15745.693289 2889.852299 15484.663149 C 2479.352476 15223.633009 2319.499015 14936.065608 2223.876703 14168.897543 C 2127.77145 13401.729479 2095.897346 12154.478254 2085.272645 10375.03434 C 2074.647944 8595.590426 2085.272645 6282.988832 2094.448523 4669.040922 C 2103.141461 3055.093012 2110.868516 2139.31629 2217.115529 1542.469186 C 2323.845484 945.622081 2529.578336 667.704593 2661.904162 464.091434 C 2793.747047 259.995779 2852.665845 130.204452 2687.500033 65.067541 C 2522.334222 0.413126 2133.083801 0.413126 1922.521538 624.762482 Z M 1922.521538 624.762482 " stroke="#231f20" stroke-width="67.966003" stroke-opacity="1" stroke-miterlimit="22.926001"/></g><g clip-path="url(#id8)"><path stroke-linecap="butt" transform="matrix(0.00830567, 0, 0, -0.00831334, 101.910694, 225.593188)" fill="none" stroke-linejoin="miter" d="M 14885.281718 13477.895303 C 13904.212755 11412.784204 12097.747805 7281.622251 11181.111464 5045.945662 C 10264.004811 2809.799195 10236.726767 2468.668215 10176.526946 2191.440559 C 10115.856813 1914.212903 10022.264903 1700.888571 11047.54311 4015.034683 C 12073.291628 6329.650673 14217.910262 11171.737106 15258.708735 13514.075861 C 16299.977519 15856.414616 16237.896453 15699.005693 16129.254588 15621.006047 C 16020.612723 15542.536524 15865.88037 15543.476279 14885.281718 13477.895303 Z M 14885.281718 13477.895303 " stroke="#231f20" stroke-width="66.188004" stroke-opacity="1" stroke-miterlimit="22.926001"/></g><g clip-path="url(#id9)"><path stroke-linecap="butt" transform="matrix(0.00778721, 0, 0, -0.0077944, 101.910694, 225.593188)" fill="none" stroke-linejoin="miter" d="M 4125.784757 15508.354916 C 4231.125705 14717.021706 5030.212037 12641.714028 5756.562953 10884.142421 C 6482.412246 9127.071975 7135.526122 7688.23876 7644.674036 7062.78984 C 8153.821951 6437.340919 8519.003903 6625.777453 8624.344851 7184.571961 C 8729.184175 7743.36647 8574.684118 8673.020114 7960.195256 10089.802245 C 7345.706394 11506.584376 6272.231974 13410.494994 5441.041734 14608.770931 C 4609.851493 15807.046869 4020.945433 16300.189287 4125.784757 15508.354916 Z M 4125.784757 15508.354916 " stroke="#231f20" stroke-width="70.594002" stroke-opacity="1" stroke-miterlimit="22.926001"/></g></svg>